<svg width="122" height="48" viewBox="0 0 122 48" fill="none" xmlns="http://www.w3.org/2000/svg" xmlns:xlink="http://www.w3.org/1999/xlink">
 <path d="M103.263 26.8433C103.141 21.956 107.393 17.7286 112.329 17.7774C117.363 17.8263 121.395 21.8094 121.395 26.8189C121.395 31.8772 117.388 35.8848 112.329 35.9336C107.393 35.9825 103.141 31.7794 103.263 26.8433ZM112.305 32.0482C115.14 32.0971 117.461 29.8245 117.534 26.9655C117.608 24.1309 115.335 21.7361 112.5 21.6872C109.544 21.6384 107.198 23.8621 107.149 26.77C107.076 29.6779 109.348 31.9994 112.305 32.0482Z" fill="#1F1841">
 </path>
 <path d="M74.8196 35.0784C74.8196 35.4938 74.7951 35.5182 74.4042 35.5182C73.7444 35.5182 73.0602 35.5182 72.4004 35.5182C71.5207 35.5182 70.9586 34.9562 70.9586 34.052C70.9586 30.7776 70.9342 27.5275 70.9586 24.2531C70.9586 23.0801 70.641 22.3959 69.2481 21.9561C67.8552 21.5162 66.4379 21.5406 65.045 21.9561C64.6541 22.0782 64.2875 22.2737 63.9454 22.5181C63.4322 22.8846 63.2856 23.4467 63.2856 24.0576C63.2856 27.6986 63.2856 35.1272 63.2856 35.225C63.2856 35.4205 63.1879 35.5182 62.9924 35.5182C61.8928 35.5182 60.8176 35.5182 59.7179 35.5182C59.498 35.5182 59.4003 35.4205 59.4003 35.2006L59.3758 24.3508C59.2781 20.7831 61.5751 18.9015 64.0432 18.2173C66.3402 17.582 68.6372 17.6064 70.8853 18.4617C72.8158 19.2192 74.2331 20.5388 74.673 22.6647C74.7707 23.1046 74.7951 23.5933 74.7951 24.0576L74.8196 35.0784Z" fill="#1F1841">
 </path>
 <path d="M93.7089 28.7493C93.6356 28.6027 90.2634 20.9297 89.5548 19.3169C89.2371 18.6083 88.6995 18.2173 87.9175 18.2173C87.0622 18.2173 86.2314 18.2173 85.3761 18.2173C84.9363 18.2173 84.8874 18.315 85.0585 18.706C85.7671 20.3432 90.5322 31.1441 92.1694 34.9073C92.4627 35.5915 93.0003 35.8359 93.7089 35.8359C94.3932 35.8359 94.9308 35.5915 95.224 34.9073C95.5417 34.1742 100.307 23.3734 102.359 18.706C102.53 18.315 102.482 18.2173 102.042 18.2173H99.5003C98.7184 18.2173 98.1808 18.6083 97.8631 19.3169L93.7089 28.7493Z" fill="#1F1841">
 </path>
 <path d="M82.8592 35.0539C82.8592 35.5182 82.8347 35.5182 82.3949 35.5182C81.393 35.5182 80.3911 35.5182 79.4137 35.5182C79.0227 35.5182 78.9982 35.4938 78.9982 35.1028V18.6327C78.9982 18.3395 79.096 18.2173 79.4137 18.2173C80.44 18.2173 81.4663 18.2417 82.4926 18.2173C82.8103 18.2173 82.8836 18.3395 82.8836 18.6327L82.8592 35.0539Z" fill="#1F1841">
 </path>
 <path d="M80.9042 16.1646C79.5602 16.1646 78.485 15.065 78.485 13.721C78.485 12.4014 79.5847 11.3507 80.9287 11.3507C82.2727 11.3507 83.3234 12.4259 83.3234 13.7699C83.3234 15.1139 82.2482 16.1891 80.9042 16.1646Z" fill="#1F1841">
 </path>
 <path d="M34.4996 23.6666L20.9863 0.256582C20.7908 -0.0855272 20.3021 -0.0855272 20.1066 0.256582L0.0688034 34.9562C-0.126687 35.2983 0.117676 35.7137 0.508657 35.7137H11.6028C12.8246 35.7137 13.9486 35.0539 14.5596 34.0032L20.5465 23.6177H34.4996V23.6666Z" fill="url(#paint0_linear)">
 </path>
 <path d="M34.4996 23.6666C29.7101 23.6666 20.5464 23.6666 20.5464 23.6666L34.0597 47.0522C34.2552 47.3943 34.744 47.3943 34.9395 47.0522L55.4171 11.595C46.7911 11.5706 38.8004 16.1891 34.4996 23.6666Z" fill="url(#paint1_linear)">
 </path>
 <path d="M34.4997 23.6666C30.1745 16.1891 22.2082 11.595 13.5822 11.595L20.5466 23.6666C24.8718 31.1441 32.838 35.7381 41.4641 35.7381L34.4997 23.6666Z" fill="url(#paint2_linear)">
 </path>
 <defs>
  <linearGradient id="paint0_linear" x1="-0.00450562" y1="17.874" x2="34.4894" y2="17.874" gradientUnits="userSpaceOnUse">
   <stop offset="0.3993" stop-color="#5FBFBA">
   </stop>
   <stop offset="0.5129" stop-color="#4FAFB6">
   </stop>
   <stop offset="0.7529" stop-color="#2587AA">
   </stop>
   <stop offset="1" stop-color="#005C95">
   </stop>
  </linearGradient>
  <linearGradient id="paint1_linear" x1="20.5421" y1="29.4403" x2="55.4102" y2="29.4403" gradientUnits="userSpaceOnUse">
   <stop stop-color="#28204F">
   </stop>
   <stop offset="0.0669476" stop-color="#462551">
   </stop>
   <stop offset="0.1755" stop-color="#742F53">
   </stop>
   <stop offset="0.2795" stop-color="#9D3853">
   </stop>
   <stop offset="0.3762" stop-color="#BD4252">
   </stop>
   <stop offset="0.4638" stop-color="#D64951">
   </stop>
   <stop offset="0.5393" stop-color="#E54F50">
   </stop>
   <stop offset="0.5942" stop-color="#EA5050">
   </stop>
   <stop offset="0.9425" stop-color="#EE7134">
   </stop>
  </linearGradient>
  <linearGradient id="paint2_linear" x1="13.5687" y1="23.6572" x2="41.4631" y2="23.6572" gradientUnits="userSpaceOnUse">
   <stop stop-color="#3A2870">
   </stop>
   <stop offset="0.1655" stop-color="#3B276C">
   </stop>
   <stop offset="0.4619" stop-color="#3C235E">
   </stop>
   <stop offset="0.8525" stop-color="#3A1B49">
   </stop>
   <stop offset="1" stop-color="#37173F">
   </stop>
  </linearGradient>
 </defs>
</svg>